# xmcd
#
# Track frame offsets: 
#        150
#        10457
#        48247
#        69086
#        86524
#        115191
#        127470
#        143349
#
# Disc length: 2364 seconds
#
# Revision: 0
# Processed by: cddbd v1.5.2PL0 Copyright (c) Steve Scherf et al.
# Submitted via: ExactAudioCopy v0.95b4
#
DISCID=65093a08
DTITLE=Blackcount Baalberith - Kingdom of Hebruk
DYEAR=1999
DGENRE=Black Ambient
TTITLE0=Intro - Kingdom of Hebruk
TTITLE1=Gates to Kingdom
TTITLE2=Forest Rulers
TTITLE3=Wolf
TTITLE4=Mirror of Barbarity
TTITLE5=With Sign of Conqueror (Instrumental)
TTITLE6=Damnation
TTITLE7=Outro - Kingdom of Hebruk
EXTD=
EXTT0=
EXTT1=
EXTT2=
EXTT3=
EXTT4=
EXTT5=
EXTT6=
EXTT7=
PLAYORDER=
